# xmcd CD database file
#
# Track frame offsets:
#	150
#	18031
#	36233
#	50889
#	67486
#	78663
#	100116
#	130881
#	150132
#	165580
#	183189
#
# Disc length: 2662 seconds
#
# Revision: 0
# Processed by: cddbd v1.5.2PL0 Copyright (c) Steve Scherf et al.
# Submitted via: CDex 1.51
#
DISCID=890a640b
DTITLE=Tracy Silverman - I'd Rather Be Dreaming
DYEAR=2005
DGENRE=Jazz
TTITLE0=If Love Ain't In the Picture
TTITLE1=Whiskey Colored Glasses
TTITLE2=Easy Is As Easy Does
TTITLE3=Are You Sleeping, Mary Anne
TTITLE4=Sidewalk Vigil - Grammercy Park, New York
TTITLE5=3rd Stone From the Sun
TTITLE6=Peace and Quiet
TTITLE7=But Not For Me
TTITLE8=Europa (Earth's Cry, Heaven's Smile)
TTITLE9=Here Comes the Sun
TTITLE10=I'd Rather Be Dreaming
EXTD=YEAR: 2005
EXTT0=
EXTT1=
EXTT2=
EXTT3=
EXTT4=
EXTT5=
EXTT6=
EXTT7=
EXTT8=
EXTT9=
EXTT10=
PLAYORDER=
